HIERARCHY
ROOT Hips
{
  OFFSET 265.287 66.7526 -254.649
  CHANNELS 6 Xposition Yposition Zposition Zrotation Xrotation Yrotation
  JOINT LeftUpLeg
  {
    OFFSET 8.64259 1.95398 -2.38835
    CHANNELS 3 Zrotation Xrotation Yrotation
    JOINT LeftLeg
    {
      OFFSET 43.7702 0 0
      CHANNELS 3 Zrotation Xrotation Yrotation
      JOINT LeftFoot
      {
        OFFSET 40.6238 0 0
        CHANNELS 3 Zrotation Xrotation Yrotation
        JOINT LeftToeBase
        {
          OFFSET 12.7242 0 0
          CHANNELS 3 Zrotation Xrotation Yrotation
          End Site
          {
            OFFSET 0 0 0
          }
        }
      }
    }
  }
  JOINT RightUpLeg
  {
    OFFSET -8.2249 1.95398 -2.59336
    CHANNELS 3 Zrotation Xrotation Yrotation
    JOINT RightLeg
    {
      OFFSET 43.5653 0 0
      CHANNELS 3 Zrotation Xrotation Yrotation
      JOINT RightFoot
      {
        OFFSET 40.6238 0 0
        CHANNELS 3 Zrotation Xrotation Yrotation
        JOINT RightToeBase
        {
          OFFSET 12.7242 0 0
          CHANNELS 3 Zrotation Xrotation Yrotation
          End Site
          {
            OFFSET 0 0 0
          }
        }
      }
    }
  }
  JOINT Spine
  {
    OFFSET 0.165834 0.87714 6.61349
    CHANNELS 3 Zrotation Xrotation Yrotation
    JOINT Spine1
    {
      OFFSET 7.38963 1.71661e-005 0
      CHANNELS 3 Zrotation Xrotation Yrotation
      JOINT Spine2
      {
        OFFSET 11.9445 1.14441e-005 0
        CHANNELS 3 Zrotation Xrotation Yrotation
        JOINT Spine3
        {
          OFFSET 14.7254 4.19617e-005 0
          CHANNELS 3 Zrotation Xrotation Yrotation
          JOINT Spine4
          {
            OFFSET 10.9679 0 0
            CHANNELS 3 Zrotation Xrotation Yrotation
            JOINT RightShoulder
            {
              OFFSET 2.46616 -1.6653 3.69651
              CHANNELS 3 Zrotation Xrotation Yrotation
              JOINT RightArm
              {
                OFFSET 13.0012 0 0
                CHANNELS 3 Zrotation Xrotation Yrotation
                JOINT RightForeArm
                {
                  OFFSET 28.7848 1.52588e-005 0
                  CHANNELS 3 Zrotation Xrotation Yrotation
                  JOINT RightHand
                  {
                    OFFSET 26.5688 1.52588e-005 0
                    CHANNELS 3 Zrotation Xrotation Yrotation
                    End Site
                    {
                      OFFSET 0 0 0
                    }
                  }
                }
              }
            }
            JOINT LeftShoulder
            {
              OFFSET 2.38034 -1.29275 -3.7523
              CHANNELS 3 Zrotation Xrotation Yrotation
              JOINT LeftArm
              {
                OFFSET 16.3182 6.10351e-005 0
                CHANNELS 3 Zrotation Xrotation Yrotation
                JOINT LeftForeArm
                {
                  OFFSET 27.0901 0 0
                  CHANNELS 3 Zrotation Xrotation Yrotation
                  JOINT LeftHand
                  {
                    OFFSET 24.5451 1.52588e-005 0
                    CHANNELS 3 Zrotation Xrotation Yrotation
                    End Site
                    {
                      OFFSET 0 0 0
                    }
                  }
                }
              }
            }
            JOINT Neck
            {
              OFFSET 5.0226 -0.0266342 0
              CHANNELS 3 Zrotation Xrotation Yrotation
              JOINT Head
              {
                OFFSET 6.69364 2.86102e-005 0
                CHANNELS 3 Zrotation Xrotation Yrotation
                End Site
                {
                  OFFSET 0 0 0
                }
              }
            }
          }
        }
      }
    }
  }
}
MOTION
Frames:	6
Frame Time:	0.0416667
154.627 14.695 28.0185 -4.92524 -8.21815 -91.9916 -170.146 9.3495 100.984 -20.6349 -0.43153 2.61632 61.2579 -0.394971 -27.2609 72.4017 -10.5761 10.121 174.34 7.3467 74.7244 -23.2002 1.23643 -5.89926 58.246 5.41182 37.7483 73.2056 2.78136 32.6348 -0.44227 7.0671 -90.3069 12.7376 -1.02486 -0.491669 1.067 -1.0455 -0.446068 -21.4697 -0.829717 -0.776955 -1.45706 -0.82971 -0.776949 104.623 -11.3313 -74.9073 57.6956 68.1753 -103.77 -12.2474 -15.1864 -105.703 -27.9814 -0.595951 -2.7549 -79.5613 -16.3489 92.5365 -57.0327 -68.5883 -111.358 12.6919 7.22202 -100.164 22.7442 0.453538 -1.9279 43.3803 10.0808 30.0991 -8.69704 -5.48646 -19.8438 
154.66 14.7424 28.1711 -4.53285 -7.53367 -92.3318 -170.187 9.41326 100.466 -20.6737 -1.06517 2.44032 62.0734 -0.332745 -27.0928 68.8264 -13.6794 -4.51317 174.384 8.17378 74.2132 -23.5829 -0.664795 -5.91507 58.796 5.10313 36.6899 73.584 2.30006 30.7863 -0.385071 6.92158 -90.2273 13.0295 -0.873503 -0.347685 1.35883 -0.887948 -0.308919 -21.1777 -0.728638 -0.594148 -1.16505 -0.728618 -0.594146 104.302 -10.7203 -75.7605 55.3695 68.211 -100.381 -15.7515 -14.0981 -107.024 -25.9272 -1.17983 0.0161124 -80.1844 -15.145 90.8508 -55.7458 -69.832 -108.789 14.0655 6.74208 -99.9888 20.1166 0.302096 -2.39688 35.7179 6.95335 27.7207 -1.32455 -6.31659 -16.8748 
154.641 14.6795 28.1454 -4.37884 -7.26864 -92.4133 -169.992 9.32356 100.427 -20.4475 -0.963268 2.3047 61.9551 -0.351353 -26.8508 69.0033 -13.4231 -3.39947 174.481 8.34686 74.1544 -23.5326 -0.763517 -5.98026 58.6483 5.12655 36.8871 73.9428 2.32898 30.7154 -0.329506 6.80783 -90.2059 13.2572 -0.753219 -0.31746 1.58648 -0.766419 -0.284017 -20.9497 -0.622968 -0.529153 -0.937016 -0.62296 -0.529165 103.757 -9.56326 -77.238 52.5384 69.4425 -96.0895 -16.9668 -13.9615 -107.989 -27.1952 -1.58566 1.50358 -80.8933 -14.676 89.0027 -52.5491 -70.9822 -104.878 15.1635 6.44784 -100.636 20.173 0.773972 -0.0348964 22.3644 3.3242 30.3174 13.6061 -9.73456 -18.3897 
154.622 14.6199 28.1136 -4.4147 -6.76799 -92.3511 -169.64 9.07775 100.592 -20.2736 -0.941249 2.18592 61.8737 -0.375206 -26.6482 68.8002 -13.4035 -3.59212 174.69 8.38789 74.2785 -23.58 -0.942574 -6.10215 58.791 5.07751 36.9699 73.4645 2.25052 30.6685 -0.334449 6.85539 -90.1839 13.1623 -0.752287 -0.274524 1.49154 -0.763651 -0.241169 -21.0447 -0.635008 -0.48793 -1.03205 -0.635007 -0.487934 103.689 -9.33349 -77.4227 55.1714 68.9684 -98.0784 -17.7154 -13.8347 -107.983 -25.9969 -1.50061 1.44346 -80.3384 -13.5733 90.263 -55.7601 -70.5333 -107.196 15.5095 6.63299 -100.847 19.7893 0.74643 -0.0982805 25.998 4.20704 27.3575 10.6187 -7.99195 -16.1997 
154.622 14.5317 28.1163 -4.43378 -6.20533 -92.3252 -169.405 8.82176 100.678 -20.2244 -1.21777 2.09591 62.1298 -0.358026 -26.6382 68.8436 -13.3902 -3.48756 174.892 8.41966 74.3203 -23.5289 -0.95942 -6.22832 58.8174 5.07479 37.2975 72.6273 2.16588 30.7722 -0.328815 6.90722 -90.1438 13.059 -0.72198 -0.198932 1.3882 -0.729981 -0.166975 -21.1481 -0.628786 -0.406746 -1.13548 -0.628775 -0.406717 103.747 -9.25027 -77.2339 56.3457 68.4259 -99.1027 -17.5868 -14.2049 -108.17 -27.5119 -1.68274 1.82546 -79.7373 -12.1377 91.677 -58.4608 -69.8422 -108.828 16.085 6.75457 -101.237 19.7927 0.892146 0.643787 27.6119 4.13623 23.9111 10.2817 -6.70451 -13.2379 
154.581 14.4366 28.1108 -4.42694 -5.64923 -92.2496 -169.039 8.59716 100.837 -20.0381 -1.22848 1.96396 61.9899 -0.405037 -26.4733 69.4063 -13.6247 -3.61021 175.099 8.40915 74.4485 -23.3939 -1.3141 -6.33327 58.7738 5.01715 37.1273 72.8008 2.20937 30.8421 -0.338146 6.955 -90.1095 12.9637 -0.723813 -0.131038 1.29293 -0.728882 -0.0990777 -21.2435 -0.650971 -0.342516 -1.2309 -0.650957 -0.342531 103.766 -8.41197 -77.072 58.9327 67.4689 -100.428 -16.5579 -14.514 -107.515 -26.6342 -1.27255 0.305427 -79.1836 -10.95 93.0655 -61.5572 -69.2723 -111.117 15.7845 7.15097 -101.23 19.4507 0.869394 0.604373 29.8554 4.34256 21.1386 9.00251 -5.50822 -11.3666 
